<?xml version="1.0" encoding="utf-8"?>
<!-- Generator: Adobe Illustrator 16.0.0, SVG Export Plug-In . SVG Version: 6.00 Build 0)  -->
<!DOCTYPE svg PUBLIC "-//W3C//DTD SVG 1.1//EN" "http://www.w3.org/Graphics/SVG/1.1/DTD/svg11.dtd">
<svg version="1.1" id="Layer_1" xmlns="http://www.w3.org/2000/svg" xmlns:xlink="http://www.w3.org/1999/xlink" x="0px" y="0px"
	 width="17.008px" height="17.007px" viewBox="0 0 17.008 17.007" enable-background="new 0 0 17.008 17.007" xml:space="preserve">
<g>
	<defs>
		<circle id="SVGID_1_" cx="8.504" cy="8.504" r="8"/>
	</defs>
	<clipPath id="SVGID_2_">
		<use xlink:href="#SVGID_1_"  overflow="visible"/>
	</clipPath>
	<g clip-path="url(#SVGID_2_)">
		<defs>
			<rect id="SVGID_3_" x="-15.496" y="-235.496" width="375" height="1351"/>
		</defs>
		<clipPath id="SVGID_4_">
			<use xlink:href="#SVGID_3_"  overflow="visible"/>
		</clipPath>
		<rect x="-4.496" y="-4.496" clip-path="url(#SVGID_4_)" fill="#E9944B" width="26" height="26"/>
	</g>
</g>
<g>
	<defs>
		<path id="SVGID_5_" d="M11.58,9.214c0.331-0.257,0.595-0.624,0.73-1.068c0.327-1.07-0.206-2.181-1.189-2.481l-0.284-0.087
			l0.458-1.497c0.026-0.086-0.022-0.177-0.107-0.203l-0.517-0.157c-0.086-0.026-0.176,0.022-0.202,0.107l-0.458,1.497L9.185,5.073
			l0.458-1.498C9.669,3.49,9.62,3.399,9.535,3.373L9.019,3.215C8.934,3.189,8.843,3.238,8.816,3.323L8.358,4.82L6.654,4.3
			C6.568,4.273,6.479,4.321,6.452,4.407L6.293,4.929C6.269,5.008,6.307,5.096,6.384,5.127c0.565,0.231,0.758,0.717,0.611,1.196
			L6.017,9.525c-0.132,0.432-0.459,0.707-0.96,0.605c-0.071-0.016-0.144,0.016-0.178,0.08l-0.26,0.496
			c-0.046,0.09-0.001,0.199,0.096,0.229l1.622,0.496l-0.458,1.496c-0.025,0.086,0.022,0.178,0.107,0.203l0.517,0.158
			c0.085,0.025,0.176-0.023,0.202-0.107l0.458-1.498l0.826,0.252l-0.458,1.498c-0.026,0.086,0.022,0.176,0.107,0.201l0.517,0.158
			c0.086,0.027,0.176-0.021,0.202-0.107l0.458-1.498l0.697,0.215c0.983,0.301,2.043-0.312,2.365-1.367
			C12.081,10.376,11.947,9.701,11.58,9.214z M8.806,6.312l1.266,0.387c0.471,0.144,0.734,0.642,0.591,1.112S10.021,8.547,9.55,8.403
			L8.284,8.017L8.806,6.312z M9.205,11.007l-1.679-0.512l0.521-1.705l1.678,0.513c0.471,0.145,0.736,0.643,0.592,1.113
			C10.173,10.886,9.676,11.152,9.205,11.007z"/>
	</defs>
	<clipPath id="SVGID_6_">
		<use xlink:href="#SVGID_5_"  overflow="visible"/>
	</clipPath>
	<g clip-path="url(#SVGID_6_)">
		<defs>
			<rect id="SVGID_7_" x="-15.026" y="-235.4" width="375" height="1351"/>
		</defs>
		<clipPath id="SVGID_8_">
			<use xlink:href="#SVGID_7_"  overflow="visible"/>
		</clipPath>
		
			<rect x="0.333" y="-1.585" transform="matrix(-0.9563 -0.2923 0.2923 -0.9563 14.8906 19.4229)" clip-path="url(#SVGID_8_)" fill="#FFFFFF" width="17.127" height="20.368"/>
	</g>
</g>
<g>
	<defs>
		<circle id="SVGID_9_" cx="8.504" cy="8.503" r="8"/>
	</defs>
	<clipPath id="SVGID_10_">
		<use xlink:href="#SVGID_9_"  overflow="visible"/>
	</clipPath>
	<g clip-path="url(#SVGID_10_)">
		<defs>
			<rect id="SVGID_11_" x="-15.496" y="-410.497" width="375" height="1351.001"/>
		</defs>
		<clipPath id="SVGID_12_">
			<use xlink:href="#SVGID_11_"  overflow="visible"/>
		</clipPath>
		<rect x="-4.496" y="-4.497" clip-path="url(#SVGID_12_)" fill="#E9944B" width="26" height="26"/>
	</g>
</g>
<g>
	<defs>
		<path id="SVGID_13_" d="M11.304,7.468c0.139-0.396,0.16-0.847,0.031-1.293C11.026,5.1,9.976,4.458,8.986,4.742L8.7,4.824
			L8.269,3.318c-0.023-0.085-0.114-0.135-0.199-0.11L7.55,3.356c-0.086,0.024-0.136,0.115-0.111,0.2L7.87,5.062L7.04,5.3
			L6.608,3.794C6.583,3.708,6.493,3.659,6.407,3.683L5.889,3.833c-0.085,0.024-0.136,0.114-0.11,0.2L6.21,5.538L4.497,6.029
			C4.41,6.054,4.36,6.143,4.386,6.229l0.15,0.524c0.022,0.08,0.102,0.133,0.185,0.117c0.601-0.114,1.026,0.188,1.164,0.67
			l0.923,3.219c0.125,0.434,0,0.843-0.477,1.029c-0.066,0.027-0.11,0.093-0.104,0.165l0.053,0.558
			c0.009,0.1,0.106,0.166,0.203,0.139l1.631-0.468l0.432,1.506c0.024,0.086,0.115,0.136,0.2,0.11l0.519-0.148
			c0.086-0.024,0.136-0.115,0.111-0.2l-0.432-1.505l0.83-0.238l0.432,1.505c0.025,0.086,0.115,0.136,0.201,0.111l0.519-0.149
			c0.085-0.024,0.136-0.114,0.11-0.2l-0.432-1.505l0.701-0.201c0.988-0.283,1.544-1.373,1.24-2.434
			C12.356,8.171,11.878,7.677,11.304,7.468z M7.396,6.545l1.272-0.364c0.473-0.136,0.966,0.138,1.102,0.61
			c0.136,0.474-0.138,0.967-0.611,1.103L7.888,8.258L7.396,6.545z M10.289,10.266L8.603,10.75L8.11,9.038l1.688-0.484
			c0.473-0.136,0.967,0.138,1.102,0.611C11.036,9.637,10.763,10.131,10.289,10.266z"/>
	</defs>
	<clipPath id="SVGID_14_">
		<use xlink:href="#SVGID_13_"  overflow="visible"/>
	</clipPath>
	<g clip-path="url(#SVGID_14_)">
		<defs>
			<rect id="SVGID_15_" x="-15.205" y="-410.585" width="375.001" height="1351"/>
		</defs>
		<clipPath id="SVGID_16_">
			<use xlink:href="#SVGID_15_"  overflow="visible"/>
		</clipPath>
		
			<rect x="0.156" y="-1.77" transform="matrix(-0.9613 0.2756 -0.2756 -0.9613 19.419 14.0989)" clip-path="url(#SVGID_16_)" fill="#FFFFFF" width="17.126" height="20.368"/>
	</g>
</g>
</svg>
