<svg width="34" height="34" viewBox="0 0 34 34" fill="none" xmlns="http://www.w3.org/2000/svg">
<g clip-path="url(#clip0_13446_1329)">
<path d="M33.4898 21.1124C31.2193 30.2196 21.9946 35.7616 12.8864 33.491C3.78234 31.2205 -1.76019 21.9958 0.5109 12.8892C2.7804 3.78087 12.0045 -1.76219 21.1101 0.508376C30.2179 2.77894 35.7599 12.0046 33.4893 21.1124H33.4898Z" fill="#F7931A"/>
<path d="M25.2741 15.7407C25.9882 13.4077 24.3634 11.8525 22.007 10.6244L23.2973 7.51235L21.4024 6.72701L20.1462 9.75705C19.6487 9.55072 19.1356 9.34949 18.6257 9.14988L19.8907 6.09994L17.9975 5.31486L16.7068 8.4257C16.2932 8.26402 15.8873 8.10463 15.4944 7.94205L15.4982 7.9323L12.8859 6.84808L12.0475 8.87141C12.0475 8.87141 13.4574 9.42477 13.4235 9.44089C14.1907 9.75927 14.2563 10.3083 14.169 10.7228L12.6991 14.2681C12.7519 14.2903 12.8201 14.3211 12.8938 14.3643L12.6942 14.2817L10.6338 19.2479C10.5 19.4754 10.1984 19.8016 9.66196 19.5802C9.67729 19.6117 8.28513 19.0089 8.28513 19.0089L6.97064 21.1156L9.43635 22.1378C9.89486 22.3285 10.343 22.5235 10.7844 22.7099L9.48003 25.8583L11.3721 26.6432L12.6639 23.5291C13.1785 23.7552 13.6795 23.9678 14.1706 24.1708L12.8844 27.2703L14.7788 28.0556L16.0821 24.914C19.3425 26.0518 21.9047 26.1738 23.4203 23.2983C24.6423 20.9829 23.9556 19.4388 22.3279 18.2545C23.6582 18.1496 24.7535 17.4489 25.2736 15.7407L25.2741 15.7407ZM19.8328 21.3717C18.858 23.7242 14.942 21.7873 13.6573 21.2556L15.3869 17.0856C16.6709 17.6184 20.8491 18.9183 19.8334 21.3718L19.8328 21.3717ZM21.3909 15.1228C20.503 17.2625 17.2477 15.6201 16.1778 15.1767L17.7462 11.3945C18.8161 11.8379 22.3167 12.8908 21.3909 15.1228Z" fill="white"/>
</g>
<defs>
<clipPath id="clip0_13446_1329">
<rect width="34" height="34" rx="17" fill="white"/>
</clipPath>
</defs>
</svg>
