<?xml version="1.0" encoding="utf-8"?>
<!-- Generator: Adobe Illustrator 25.0.1, SVG Export Plug-In . SVG Version: 6.00 Build 0)  -->
<svg version="1.1" id="Layer_1" xmlns="http://www.w3.org/2000/svg" xmlns:xlink="http://www.w3.org/1999/xlink" x="0px" y="0px"
	 viewBox="0 0 17 17" style="enable-background:new 0 0 17 17;" xml:space="preserve">
<style type="text/css">
	.st0{clip-path:url(#SVGID_3_);}
	.st1{clip-path:url(#SVGID_4_);}
	.st2{clip-path:url(#SVGID_7_);}
	.st3{clip-path:url(#SVGID_8_);}
	.st4{fill:#FFFFFF;}
	.st5{fill:#E0E0E0;}
	.st6{fill:#E7007B;}
</style>
<g>
	<g>
		<defs>
			<circle id="SVGID_1_" cx="8.5" cy="8.5" r="8"/>
		</defs>
		<defs>
			<path id="SVGID_2_" d="M8.5,16.6C4,16.6,0.4,13,0.4,8.5C0.4,4,4,0.4,8.5,0.4c4.5,0,8.1,3.6,8.1,8.1C16.6,13,13,16.6,8.5,16.6z
				 M8.5,0.6c-4.3,0-7.9,3.5-7.9,7.9c0,4.3,3.5,7.9,7.9,7.9c4.3,0,7.9-3.5,7.9-7.9C16.4,4.2,12.8,0.6,8.5,0.6z"/>
		</defs>
		<use xlink:href="#SVGID_1_"  style="overflow:visible;fill:#FFFFFF;"/>
		<use xlink:href="#SVGID_2_"  style="overflow:visible;fill:#E0E0E0;"/>
		<clipPath id="SVGID_3_">
			<use xlink:href="#SVGID_1_"  style="overflow:visible;"/>
		</clipPath>
		<clipPath id="SVGID_4_" class="st0">
			<use xlink:href="#SVGID_2_"  style="overflow:visible;"/>
		</clipPath>
		<g class="st1">
			<g>
				<defs>
					<rect id="SVGID_5_" x="-15.5" y="-235.5" width="375" height="1351"/>
				</defs>
				<defs>
					<path id="SVGID_6_" d="M359.6,1115.6H-15.6V-235.6h375.2V1115.6z M-15.4,1115.4h374.8V-235.4H-15.4V1115.4z"/>
				</defs>
				<use xlink:href="#SVGID_5_"  style="overflow:visible;fill:#FFFFFF;"/>
				<use xlink:href="#SVGID_6_"  style="overflow:visible;fill:#E0E0E0;"/>
				<clipPath id="SVGID_7_">
					<use xlink:href="#SVGID_5_"  style="overflow:visible;"/>
				</clipPath>
				<clipPath id="SVGID_8_" class="st2">
					<use xlink:href="#SVGID_6_"  style="overflow:visible;"/>
				</clipPath>
				<g class="st3">
					<rect x="-4.5" y="-4.5" class="st4" width="26" height="26"/>
					<path class="st5" d="M21.6,21.6H-4.6V-4.6h26.2V21.6z M-4.4,21.4h25.8V-4.4H-4.4V21.4z"/>
				</g>
			</g>
		</g>
	</g>
</g>
<path class="st6" d="M3,9.8c0-0.2,0-0.4,0.1-0.6C3.3,9,3.5,8.8,3.8,8.8c0.2,0,0.4,0,0.6,0.1C4.7,9,4.9,9.2,5.1,9.5
	c0.4,0.4,0.6,0.9,0.8,1.4C6,11.1,6,11.3,6,11.6c0,0.2-0.1,0.5-0.2,0.7c-0.1,0.2-0.3,0.3-0.5,0.3c-0.2,0-0.4,0-0.6-0.1
	C4.3,12.3,4,12,3.7,11.7c-0.3-0.3-0.5-0.7-0.6-1.1C3.1,10.4,3,10.1,3,9.8z"/>
<path class="st6" d="M14,9.9c0,0.3-0.1,0.7-0.2,1c-0.2,0.4-0.4,0.8-0.7,1.1c-0.2,0.2-0.5,0.4-0.7,0.5c-0.2,0.1-0.4,0.1-0.6,0.1
	c-0.3-0.1-0.4-0.2-0.5-0.5C11,11.9,11,11.7,11,11.4c0-0.6,0.3-1.1,0.6-1.6c0.2-0.3,0.4-0.5,0.6-0.7C12.5,9,12.7,8.8,13,8.8
	c0.4-0.1,0.8,0.1,0.9,0.5C13.9,9.5,14,9.7,14,9.9z"/>
<path class="st6" d="M14,6.9c0,0.3,0,0.5-0.1,0.7C13.7,7.9,13.4,8,13.1,8c-0.3,0-0.5-0.1-0.7-0.3c-0.4-0.2-0.6-0.6-0.9-1
	c-0.2-0.2-0.3-0.5-0.4-0.8C11,5.7,11,5.5,11,5.2c0-0.2,0-0.4,0.2-0.6c0.2-0.3,0.4-0.4,0.8-0.4c0.3,0,0.6,0.2,0.8,0.3
	C13,4.7,13.2,5,13.4,5.3c0.2,0.3,0.4,0.7,0.5,1.1c0,0.1,0,0.2,0.1,0.3C14,6.7,14,6.8,14,6.9z"/>
<path class="st6" d="M8.5,14.2c-0.4,0-0.8-0.1-1.2-0.2c-0.2-0.1-0.4-0.2-0.6-0.4c-0.1-0.1-0.2-0.3-0.3-0.5c0-0.2,0-0.4,0.1-0.6
	c0.1-0.2,0.3-0.3,0.5-0.4c0.3-0.2,0.6-0.2,0.9-0.3c0.2,0,0.5,0,0.8,0c0.4,0,0.8,0.1,1.1,0.3c0.2,0.1,0.4,0.2,0.5,0.4
	c0.1,0.2,0.2,0.3,0.2,0.6c0,0.2-0.1,0.3-0.2,0.5c-0.2,0.2-0.4,0.3-0.6,0.5c-0.3,0.1-0.6,0.2-0.9,0.2C8.8,14.2,8.6,14.2,8.5,14.2z"/>
<path class="st6" d="M6,5.2c0,0.3-0.1,0.6-0.2,0.9C5.7,6.6,5.5,7,5.1,7.3C4.9,7.5,4.7,7.7,4.4,7.9C4.2,8,4,8,3.8,8
	C3.5,8,3.3,7.9,3.2,7.6C3.1,7.5,3.1,7.3,3,7.1c0-0.4,0.1-0.9,0.2-1.3C3.5,5.4,3.7,5,4.1,4.7c0.2-0.2,0.5-0.4,0.7-0.5
	c0.2-0.1,0.4-0.1,0.6,0c0.2,0.1,0.4,0.2,0.5,0.4C6,4.8,6,5,6,5.2z"/>
<path class="st6" d="M8.5,5C8.1,5,7.8,5,7.4,4.8C7.2,4.7,6.9,4.6,6.7,4.4C6.6,4.3,6.4,4.1,6.4,3.9c0-0.2,0-0.4,0.1-0.5
	C6.7,3.2,6.8,3,7.1,2.9c0.3-0.2,0.6-0.3,1-0.3c0.3,0,0.5,0,0.8,0c0.4,0,0.8,0.1,1.2,0.3c0.2,0.1,0.4,0.3,0.5,0.5
	c0.2,0.3,0.1,0.5,0,0.8c-0.1,0.2-0.3,0.4-0.5,0.5C9.6,4.9,9.3,4.9,9,5C8.8,5,8.7,5,8.5,5z"/>
</svg>
