<?xml version="1.0" encoding="utf-8"?>
<!-- Generator: Adobe Illustrator 25.0.1, SVG Export Plug-In . SVG Version: 6.00 Build 0)  -->
<svg version="1.1" id="Layer_1" xmlns="http://www.w3.org/2000/svg" xmlns:xlink="http://www.w3.org/1999/xlink" x="0px" y="0px"
	 viewBox="0 0 17 17" style="enable-background:new 0 0 17 17;" xml:space="preserve">
<style type="text/css">
	.st0{clip-path:url(#SVGID_2_);}
	.st1{clip-path:url(#SVGID_4_);fill:#F2F2F2;}
	.st2{fill:#39B041;}
	.st3{fill:#147F3A;}
	.st4{fill:#16803A;}
	.st5{fill:#186434;}
	.st6{fill:#104C29;}
</style>
<g>
	<g>
		<defs>
			<circle id="SVGID_1_" cx="8.5" cy="8.5" r="8"/>
		</defs>
		<use xlink:href="#SVGID_1_"  style="overflow:visible;fill:#F2F2F2;"/>
		<clipPath id="SVGID_2_">
			<use xlink:href="#SVGID_1_"  style="overflow:visible;"/>
		</clipPath>
		<g class="st0">
			<g>
				<defs>
					<rect id="SVGID_3_" x="-15.5" y="-235.5" width="375" height="1351"/>
				</defs>
				<use xlink:href="#SVGID_3_"  style="overflow:visible;fill:#F2F2F2;"/>
				<clipPath id="SVGID_4_">
					<use xlink:href="#SVGID_3_"  style="overflow:visible;"/>
				</clipPath>
				<rect x="-4.5" y="-4.5" class="st1" width="26" height="26"/>
			</g>
		</g>
	</g>
</g>
<g>
	<path class="st2" d="M8.4,3v3.1L5.2,7.9L8.4,3z M8.4,3"/>
	<path class="st3" d="M8.4,3v3.1l3.3,1.8L8.4,3z M8.4,3"/>
	<path class="st2" d="M8.4,13.9v-3.1L5.2,9L8.4,13.9z M8.4,13.9"/>
	<path class="st3" d="M8.4,13.9v-3.1L11.7,9L8.4,13.9z M8.4,13.9"/>
	<path class="st2" d="M5.4,8.4l3-1.8v2L5.4,8.4z M5.4,8.4"/>
	<path class="st4" d="M11.5,8.4l-3-1.8v2L11.5,8.4z M11.5,8.4"/>
	<path class="st5" d="M5.4,8.4l3,0.2v1.6L5.4,8.4z M5.4,8.4"/>
	<path class="st6" d="M11.5,8.4l-3,0.2v1.6L11.5,8.4z M11.5,8.4"/>
</g>
</svg>
