<svg width="34" height="34" viewBox="0 0 34 34" fill="none" xmlns="http://www.w3.org/2000/svg">
<rect width="34" height="34" rx="17" fill="#627EEA"/>
<path d="M17 5.10664V14.9279L9.90532 17.1364L17 5.10664ZM17 5.10664V14.9279L24.0947 17.1364L17 5.10664ZM17 28.8948V22.0609L9.90532 18.1484L17 28.8948ZM17 28.8948V22.0609L24.0947 18.1484L17 28.8948Z" fill="white"/>
<path d="M17 5.10664V14.9279L24.0947 17.1364L17 5.10664ZM17 28.8948V22.0609L24.0947 18.1484L17 28.8948Z" fill="#C0CCF7"/>
<path d="M9.90532 17.136L17 13.8391V20.6208L9.90532 17.136ZM24.0947 17.136L17 13.8391V20.6208L24.0947 17.136Z" fill="#9AADF2"/>
<path d="M9.90532 17.136L17 13.8391V20.6208L9.90532 17.136Z" fill="#D3DBF9"/>
</svg>
