<svg width="24" height="24" viewBox="0 0 24 24" fill="none" xmlns="http://www.w3.org/2000/svg">
<g clip-path="url(#clip0_1620_4213)">
<path d="M12.0002 24C18.6277 24 24.0002 18.6274 24.0002 12C24.0002 5.37258 18.6277 0 12.0002 0C5.37283 0 0.000244141 5.37258 0.000244141 12C0.000244141 18.6274 5.37283 24 12.0002 24Z" fill="#0052B4"/>
<path d="M12.0015 4.69482L12.3901 5.89051H13.6472L12.6301 6.62946L13.0186 7.82515L12.0015 7.08615L10.9844 7.82515L11.3729 6.62946L10.3558 5.89051H11.613L12.0015 4.69482Z" fill="#FFDA44"/>
<path d="M6.83815 6.83526L7.95841 7.40599L8.84736 6.51709L8.65064 7.75876L9.77086 8.32953L8.52914 8.52621L8.33246 9.76797L7.76169 8.64775L6.52002 8.84448L7.40897 7.95553L6.83815 6.83526Z" fill="#FFDA44"/>
<path d="M4.69788 11.9978L5.89356 11.6092V10.3521L6.63247 11.3692L7.8282 10.9807L7.08915 11.9978L7.8282 13.0149L6.63247 12.6264L5.89356 13.6435V12.3863L4.69788 11.9978Z" fill="#FFDA44"/>
<path d="M6.83815 17.1651L7.40892 16.0448L6.52002 15.1559L7.76174 15.3526L8.33241 14.2324L8.52914 15.4741L9.77081 15.6708L8.65073 16.2416L8.84736 17.4833L7.95841 16.5943L6.83815 17.1651Z" fill="#FFDA44"/>
<path d="M12.0023 19.3031L11.6137 18.1074H10.3566L11.3737 17.3684L10.9851 16.1729L12.0023 16.9118L13.0194 16.1729L12.6309 17.3684L13.6479 18.1074H12.3908L12.0023 19.3031Z" fill="#FFDA44"/>
<path d="M17.1667 17.1641L16.0465 16.5934L15.1575 17.4823L15.3543 16.2406L14.2341 15.6698L15.4758 15.4732L15.6725 14.2314L16.2432 15.3517L17.4849 15.1549L16.5959 16.0439L17.1667 17.1641Z" fill="#FFDA44"/>
<path d="M19.3066 11.9987L18.1109 12.3873V13.6445L17.372 12.6273L16.1764 13.0158L16.9153 11.9987L16.1764 10.9816L17.372 11.3702L18.1109 10.353V11.6103L19.3066 11.9987Z" fill="#FFDA44"/>
<path d="M17.1677 6.83522L16.5969 7.95548L17.4859 8.84443L16.2441 8.64766L15.6735 9.76788L15.4768 8.52617L14.2351 8.32944L15.3552 7.75871L15.1585 6.51709L16.0475 7.40599L17.1677 6.83522Z" fill="#FFDA44"/>
</g>
<defs>
<clipPath id="clip0_1620_4213">
<rect width="24" height="24" fill="white"/>
</clipPath>
</defs>
</svg>
