<svg width="24" height="24" viewBox="0 0 24 24" fill="none" xmlns="http://www.w3.org/2000/svg">
<g clip-path="url(#clip0_1620_7054)">
<path d="M11.9993 23.9976C18.6267 23.9976 23.9993 18.625 23.9993 11.9976C23.9993 5.37014 18.6267 -0.00244141 11.9993 -0.00244141C5.37185 -0.00244141 -0.000732422 5.37014 -0.000732422 11.9976C-0.000732422 18.625 5.37185 23.9976 11.9993 23.9976Z" fill="#F0F0F0"/>
<path d="M2.47971 4.69336C1.5371 5.91975 0.826335 7.33327 0.412476 8.86884H6.65519L2.47971 4.69336Z" fill="#0052B4"/>
<path d="M23.5845 8.8688C23.1707 7.33327 22.4599 5.91975 21.5173 4.69336L17.3419 8.8688H23.5845Z" fill="#0052B4"/>
<path d="M0.412354 15.1299C0.82626 16.6654 1.53703 18.0789 2.47959 19.3053L6.65493 15.1299H0.412354Z" fill="#0052B4"/>
<path d="M19.304 2.48086C18.0776 1.53825 16.6641 0.82748 15.1285 0.413574V6.65625L19.304 2.48086Z" fill="#0052B4"/>
<path d="M4.69312 21.5186C5.91951 22.4612 7.33302 23.172 8.86855 23.5859V17.3433L4.69312 21.5186Z" fill="#0052B4"/>
<path d="M8.86851 0.413574C7.33297 0.82748 5.91946 1.53825 4.69312 2.48081L8.86851 6.6562V0.413574Z" fill="#0052B4"/>
<path d="M15.1294 23.5859C16.6649 23.172 18.0784 22.4612 19.3048 21.5187L15.1294 17.3433V23.5859Z" fill="#0052B4"/>
<path d="M17.3419 15.1309L21.5173 19.3063C22.4599 18.08 23.1707 16.6664 23.5845 15.1309H17.3419Z" fill="#0052B4"/>
<path d="M23.9 10.4377H13.5669H13.5668V0.104508C13.0544 0.0378047 12.5321 0.00292969 12.0016 0.00292969C11.471 0.00292969 10.9487 0.0378047 10.4364 0.104508V10.4376V10.4377H0.103165C0.0364619 10.9501 0.00158691 11.4724 0.00158691 12.0029C0.00158691 12.5335 0.0364619 13.0558 0.103165 13.5681H10.4363H10.4363V23.9014C10.9487 23.9681 11.471 24.0029 12.0016 24.0029C12.5321 24.0029 13.0544 23.9681 13.5668 23.9014V13.5682V13.5682H23.9C23.9667 13.0558 24.0016 12.5335 24.0016 12.0029C24.0016 11.4724 23.9667 10.9501 23.9 10.4377Z" fill="#D80027"/>
<path d="M15.1335 15.1348L20.4884 20.4896C20.7346 20.2434 20.9696 19.986 21.1937 19.7192L16.6093 15.1348H15.1335V15.1348Z" fill="#D80027"/>
<path d="M8.87219 15.1348H8.8721L3.51733 20.4895C3.76352 20.7358 4.02091 20.9707 4.28772 21.1949L8.87219 16.6103V15.1348Z" fill="#D80027"/>
<path d="M8.87 8.87351V8.87341L3.51519 3.51855C3.26891 3.76474 3.03397 4.02213 2.80981 4.28895L7.39433 8.87346H8.87V8.87351Z" fill="#D80027"/>
<path d="M15.1335 8.87225L20.4884 3.51734C20.2422 3.27106 19.9848 3.03612 19.718 2.81201L15.1335 7.39653V8.87225Z" fill="#D80027"/>
</g>
<defs>
<clipPath id="clip0_1620_7054">
<rect width="24" height="24" fill="white"/>
</clipPath>
</defs>
</svg>
