<?xml version="1.0" encoding="utf-8"?>
<!-- Generator: Adobe Illustrator 16.0.0, SVG Export Plug-In . SVG Version: 6.00 Build 0)  -->
<!DOCTYPE svg PUBLIC "-//W3C//DTD SVG 1.1//EN" "http://www.w3.org/Graphics/SVG/1.1/DTD/svg11.dtd">
<svg version="1.1" id="Layer_1" xmlns="http://www.w3.org/2000/svg" xmlns:xlink="http://www.w3.org/1999/xlink" x="0px" y="0px"
	 width="17.008px" height="17.007px" viewBox="0 0 17.008 17.007" enable-background="new 0 0 17.008 17.007" xml:space="preserve">
<g>
	<defs>
		<circle id="SVGID_1_" cx="8.504" cy="8.504" r="8"/>
	</defs>
	<clipPath id="SVGID_2_">
		<use xlink:href="#SVGID_1_"  overflow="visible"/>
	</clipPath>
	<g clip-path="url(#SVGID_2_)">
		<defs>
			<rect id="SVGID_3_" x="-15.496" y="-235.496" width="375" height="1351"/>
		</defs>
		<clipPath id="SVGID_4_">
			<use xlink:href="#SVGID_3_"  overflow="visible"/>
		</clipPath>
		<rect x="-4.496" y="-4.496" clip-path="url(#SVGID_4_)" fill="#E9944B" width="26" height="26"/>
	</g>
</g>
<g>
	<defs>
		<path id="SVGID_5_" d="M11.58,9.214c0.331-0.257,0.595-0.624,0.73-1.068c0.327-1.07-0.206-2.181-1.189-2.481l-0.284-0.087
			l0.458-1.497c0.026-0.086-0.022-0.177-0.107-0.203l-0.517-0.157c-0.086-0.026-0.176,0.022-0.202,0.107l-0.458,1.497L9.185,5.073
			l0.458-1.498C9.669,3.49,9.62,3.399,9.535,3.373L9.019,3.215C8.934,3.189,8.843,3.238,8.816,3.323L8.358,4.82L6.654,4.3
			C6.568,4.273,6.479,4.321,6.452,4.407L6.293,4.929C6.269,5.008,6.307,5.096,6.384,5.127c0.565,0.231,0.758,0.717,0.611,1.196
			L6.017,9.525c-0.132,0.432-0.459,0.707-0.96,0.605c-0.071-0.016-0.144,0.016-0.178,0.08l-0.26,0.496
			c-0.046,0.09-0.001,0.199,0.096,0.229l1.622,0.496l-0.458,1.496c-0.025,0.086,0.022,0.178,0.107,0.203l0.517,0.158
			c0.085,0.025,0.176-0.023,0.202-0.107l0.458-1.498l0.826,0.252l-0.458,1.498c-0.026,0.086,0.022,0.176,0.107,0.201l0.517,0.158
			c0.086,0.027,0.176-0.021,0.202-0.107l0.458-1.498l0.697,0.215c0.983,0.301,2.043-0.312,2.365-1.367
			C12.081,10.376,11.947,9.701,11.58,9.214z M8.806,6.312l1.266,0.387c0.471,0.144,0.734,0.642,0.591,1.112S10.021,8.547,9.55,8.403
			L8.284,8.017L8.806,6.312z M9.205,11.007l-1.679-0.512l0.521-1.705l1.678,0.513c0.471,0.145,0.736,0.643,0.592,1.113
			C10.173,10.886,9.676,11.152,9.205,11.007z"/>
	</defs>
	<clipPath id="SVGID_6_">
		<use xlink:href="#SVGID_5_"  overflow="visible"/>
	</clipPath>
	<g clip-path="url(#SVGID_6_)">
		<defs>
			<rect id="SVGID_7_" x="-15.026" y="-235.4" width="375" height="1351"/>
		</defs>
		<clipPath id="SVGID_8_">
			<use xlink:href="#SVGID_7_"  overflow="visible"/>
		</clipPath>
		
			<rect x="0.333" y="-1.585" transform="matrix(-0.9563 -0.2923 0.2923 -0.9563 14.8906 19.4229)" clip-path="url(#SVGID_8_)" fill="#FFFFFF" width="17.127" height="20.368"/>
	</g>
</g>
<g>
	<defs>
		<circle id="SVGID_9_" cx="8.504" cy="8.503" r="8"/>
	</defs>
	<use xlink:href="#SVGID_9_"  overflow="visible" fill-rule="evenodd" clip-rule="evenodd" fill="#3F5A84"/>
	<clipPath id="SVGID_10_">
		<use xlink:href="#SVGID_9_"  overflow="visible"/>
	</clipPath>
	<g clip-path="url(#SVGID_10_)">
		<defs>
			<rect id="SVGID_11_" x="-15.496" y="-410.497" width="375" height="1351.001"/>
		</defs>
		<use xlink:href="#SVGID_11_"  overflow="visible" fill="#3F5A84"/>
		<clipPath id="SVGID_12_">
			<use xlink:href="#SVGID_11_"  overflow="visible"/>
		</clipPath>
		<rect x="-4.496" y="-4.497" clip-path="url(#SVGID_12_)" fill="#3F5A84" width="26" height="26"/>
	</g>
</g>
<g>
	<defs>
		<polygon id="SVGID_13_" points="8.663,2.062 4.585,9.227 8.584,10.946 12.423,9.211 		"/>
	</defs>
	<clipPath id="SVGID_14_">
		<use xlink:href="#SVGID_13_"  overflow="visible"/>
	</clipPath>
	<g clip-path="url(#SVGID_14_)">
		<defs>
			<rect id="SVGID_15_" x="-15.398" y="-588.943" width="375" height="1351"/>
		</defs>
		<clipPath id="SVGID_16_">
			<use xlink:href="#SVGID_15_"  overflow="visible"/>
		</clipPath>
		<rect x="-0.415" y="-2.938" clip-path="url(#SVGID_16_)" fill="#ECECEB" width="17.838" height="18.884"/>
	</g>
</g>
<g>
	<defs>
		<polygon id="SVGID_17_" points="4.684,9.952 8.703,15.305 12.324,9.952 8.692,11.697 		"/>
	</defs>
	<clipPath id="SVGID_18_">
		<use xlink:href="#SVGID_17_"  overflow="visible"/>
	</clipPath>
	<g clip-path="url(#SVGID_18_)">
		<defs>
			<rect id="SVGID_19_" x="-15.316" y="-588.985" width="375" height="1351.001"/>
		</defs>
		<clipPath id="SVGID_20_">
			<use xlink:href="#SVGID_19_"  overflow="visible"/>
		</clipPath>
		<rect x="-0.316" y="4.952" clip-path="url(#SVGID_20_)" fill="#ECECEB" width="17.641" height="15.354"/>
	</g>
</g>
<g>
	<defs>
		<circle id="SVGID_21_" cx="8.504" cy="8.503" r="8"/>
	</defs>
	<clipPath id="SVGID_22_">
		<use xlink:href="#SVGID_21_"  overflow="visible"/>
	</clipPath>
	<g clip-path="url(#SVGID_22_)">
		<defs>
			<rect id="SVGID_23_" x="-15.496" y="-768.497" width="375" height="1351"/>
		</defs>
		<clipPath id="SVGID_24_">
			<use xlink:href="#SVGID_23_"  overflow="visible"/>
		</clipPath>
		<rect x="-4.496" y="-4.497" clip-path="url(#SVGID_24_)" fill="#BCBCBB" width="26" height="26"/>
	</g>
</g>
<g>
	<defs>
		<polygon id="SVGID_25_" points="8.215,3.914 11.399,3.914 8.215,10.765 12.747,10.765 12.673,13.093 4.261,13.093 		"/>
	</defs>
	<clipPath id="SVGID_26_">
		<use xlink:href="#SVGID_25_"  overflow="visible"/>
	</clipPath>
	<g clip-path="url(#SVGID_26_)">
		<defs>
			<rect id="SVGID_27_" x="-15.164" y="-767.708" width="375" height="1351"/>
		</defs>
		<clipPath id="SVGID_28_">
			<use xlink:href="#SVGID_27_"  overflow="visible"/>
		</clipPath>
		<rect x="-0.739" y="-1.086" clip-path="url(#SVGID_28_)" fill="#FFFFFF" width="18.486" height="19.18"/>
	</g>
</g>
<g>
	<defs>
		<rect id="SVGID_29_" x="-15.122" y="-766.944" width="375" height="1351"/>
	</defs>
	<clipPath id="SVGID_30_">
		<use xlink:href="#SVGID_29_"  overflow="visible"/>
	</clipPath>
	
		<line clip-path="url(#SVGID_30_)" fill="none" stroke="#FFFFFF" stroke-miterlimit="10" x1="4.302" y1="9.449" x2="11.128" y2="7.858"/>
</g>
</svg>
