<?xml version="1.0" encoding="utf-8"?>
<!-- Generator: Adobe Illustrator 16.0.0, SVG Export Plug-In . SVG Version: 6.00 Build 0)  -->
<!DOCTYPE svg PUBLIC "-//W3C//DTD SVG 1.1//EN" "http://www.w3.org/Graphics/SVG/1.1/DTD/svg11.dtd">
<svg version="1.1" id="Layer_1" xmlns="http://www.w3.org/2000/svg" xmlns:xlink="http://www.w3.org/1999/xlink" x="0px" y="0px"
	 width="43.833px" height="43.833px" viewBox="0 0 43.833 43.833" enable-background="new 0 0 43.833 43.833" xml:space="preserve">
<g>
	<g>
		<circle id="SVGID_1_" fill="#CECECE" cx="22" cy="21.943" r="21.5"/>
	</g>
	<g>
		<defs>
			<circle id="SVGID_2_" cx="22" cy="21.943" r="21.5"/>
		</defs>
		<clipPath id="SVGID_3_">
			<use xlink:href="#SVGID_2_"  overflow="visible"/>
		</clipPath>
		<rect x="-4.5" y="-4.557" clip-path="url(#SVGID_3_)" fill="#CECECE" width="53" height="53"/>
	</g>
</g>
<path fill="#FFFFFF" d="M27.562,20.987c0.989-0.485,1.724-1.127,2.22-1.922c0.48-0.798,0.727-1.641,0.727-2.547
	c0-0.965-0.273-1.893-0.825-2.775c-0.55-0.889-1.314-1.544-2.285-1.972c-0.974-0.425-2.264-0.639-3.869-0.639h-7.907v21.065h8.035
	c1.338,0,2.472-0.118,3.401-0.349c0.92-0.236,1.688-0.582,2.302-1.044c0.613-0.455,1.127-1.11,1.546-1.96
	c0.416-0.85,0.622-1.763,0.622-2.752c0-1.227-0.342-2.288-1.025-3.195C29.817,22.002,28.839,21.365,27.562,20.987L27.562,20.987z
	 M18.41,13.621h4.209c1.515,0,2.582,0.094,3.209,0.291c0.621,0.197,1.102,0.559,1.434,1.092c0.339,0.53,0.504,1.148,0.504,1.847
	c0,0.736-0.181,1.351-0.538,1.838c-0.361,0.491-0.895,0.842-1.604,1.05c-0.537,0.164-1.417,0.246-2.656,0.246H18.41V13.621z
	 M28.226,27.867c-0.282,0.51-0.629,0.901-1.066,1.169c-0.429,0.27-0.968,0.461-1.606,0.576c-0.367,0.07-1,0.101-1.896,0.101H18.41
	v-7.239h4.874c1.338,0,2.365,0.115,3.083,0.35c0.71,0.231,1.268,0.642,1.672,1.221c0.401,0.58,0.604,1.263,0.604,2.049
	C28.642,26.762,28.501,27.357,28.226,27.867L28.226,27.867z M28.226,27.867"/>
</svg>
