<?xml version="1.0" encoding="UTF-8"?>
<svg width="24px" height="23px" viewBox="0 0 24 23" version="1.1" xmlns="http://www.w3.org/2000/svg" xmlns:xlink="http://www.w3.org/1999/xlink">
    <title>编组 17</title>
    <defs>
        <linearGradient x1="22.2304055%" y1="4.07986111%" x2="63.8270383%" y2="95.9201389%" id="linearGradient-1">
            <stop stop-color="#F7256A" offset="0%"></stop>
            <stop stop-color="#D6428F" offset="49.8899389%"></stop>
            <stop stop-color="#A76BC1" offset="100%"></stop>
        </linearGradient>
    </defs>
    <g id="页面-1" stroke="none" stroke-width="1" fill="none" fill-rule="evenodd">
        <g id="首页" transform="translate(-35.000000, -579.000000)">
            <g id="编组-17" transform="translate(35.000000, 579.000000)">
                <path d="M13.9365203,1.07146506 L20.3288251,4.60828903 C21.6020724,5.31276913 22.3923048,6.65312687 22.3923048,8.10827321 L22.3923048,14.8917268 C22.3923048,16.3468731 21.6020724,17.6872309 20.3288251,18.391711 L13.9365203,21.9285349 C12.7315772,22.5952227 11.2684228,22.5952227 10.0634797,21.9285349 L3.67117488,18.391711 C2.3979276,17.6872309 1.60769515,16.3468731 1.60769515,14.8917268 L1.60769515,8.10827321 C1.60769515,6.65312687 2.3979276,5.31276913 3.67117488,4.60828903 L10.0634797,1.07146506 C11.2684228,0.404777298 12.7315772,0.404777298 13.9365203,1.07146506 Z" id="多边形" fill="url(#linearGradient-1)"></path>
                <g id="星星" transform="translate(6.545455, 6.272727)" fill="#FFFFFF" fill-rule="nonzero">
                    <path d="M6.21020866,0.46980474 L7.24381695,2.56237396 C7.36665875,2.81045567 7.60365656,2.98287246 7.87787918,3.02256553 L10.1870569,3.35747584 C10.8781971,3.45794893 11.1536606,4.30638838 10.6536076,4.79386895 L8.98221457,6.42252538 C8.78368237,6.61602912 8.69310205,6.89512104 8.74025345,7.16801091 L9.1348362,9.46772838 C9.25271469,10.1561551 8.5305538,10.6808479 7.91262232,10.3558609 L5.84664657,9.27050342 C5.60117252,9.14150038 5.3079184,9.14150038 5.06244436,9.27050342 L2.99646859,10.3558609 C2.37853711,10.6808479 1.6563762,10.1561551 1.77425471,9.46772838 L2.16883746,7.16801091 C2.21598886,6.89512104 2.12540854,6.6160291 1.92687634,6.42252538 L0.255483345,4.79510935 C-0.244569644,4.3076288 0.0308937885,3.45918934 0.722034024,3.35871626 L3.03121173,3.02380595 C3.30543434,2.98411287 3.54243216,2.81169609 3.66527396,2.56361437 L4.70012308,0.46980474 C5.00908882,-0.15660158 5.90124292,-0.15660158 6.21020866,0.46980474 Z" id="路径"></path>
                </g>
            </g>
        </g>
    </g>
</svg>