<svg width="20" height="20" viewBox="0 0 20 20" fill="none" xmlns="http://www.w3.org/2000/svg">
<g clip-path="url(#clip0_87_20709)">
<g clip-path="url(#clip1_87_20709)">
<path d="M20 10C20 4.475 15.525 0 10 0C4.475 0 0 4.475 0 10C0 15.525 4.475 20 10 20C15.525 20 20 15.525 20 10Z" fill="#F5F5F5"/>
<path d="M11.5333 11.8167C8.70001 12.6667 6.35001 13.9083 4.88335 15.3583L4.81668 15.425C5.20835 15.7917 5.63335 16.125 6.10001 16.4083L6.20001 16.2833C6.60001 15.7917 7.03335 15.325 7.47501 14.875C8.67501 13.6833 10.05 12.6417 11.5333 11.8167Z" fill="#141416"/>
<path d="M2.5 10.5583C2.61667 12.075 3.175 13.4667 4.05833 14.6L4.1 14.5583C5.00833 13.6667 6.19167 12.85 7.61667 12.1417C8.86667 11.5167 10.3 10.9833 11.85 10.5667H2.5V10.5583Z" fill="#141416"/>
<path d="M8.26667 4.325C10.8 6.85 13.9917 8.51667 17.5 9.15C17.075 5.40833 13.8917 2.5 10.0167 2.5C8.99167 2.5 8.01667 2.7 7.125 3.075C7.48333 3.50833 7.875 3.93333 8.26667 4.33333V4.325Z" fill="#141416"/>
<path d="M4.88335 4.63334C6.35001 6.09167 8.70001 7.32501 11.5333 8.18334C10.05 7.35001 8.67501 6.31667 7.47501 5.12501C7.02501 4.68334 6.60001 4.20834 6.20001 3.71667L6.10001 3.59167C5.63335 3.87501 5.20835 4.20001 4.81668 4.57501L4.88335 4.64167V4.63334Z" fill="#141416"/>
<path d="M8.26667 15.675C7.86667 16.075 7.48333 16.4916 7.125 16.9333C8.01667 17.3 8.99167 17.5083 10.0167 17.5083C13.8917 17.5083 17.0833 14.6 17.5083 10.85C14.0083 11.4833 10.8167 13.15 8.275 15.675H8.26667Z" fill="#141416"/>
<path d="M7.61667 7.85836C6.19167 7.15002 5.00833 6.33336 4.1 5.44169L4.05833 5.40002C3.175 6.53336 2.60833 7.92502 2.5 9.44169H11.8583C10.3083 9.01669 8.875 8.48336 7.625 7.85836H7.61667Z" fill="#141416"/>
</g>
</g>
<defs>
<clipPath id="clip0_87_20709">
<rect width="20" height="20" fill="white"/>
</clipPath>
<clipPath id="clip1_87_20709">
<rect width="20" height="20" fill="white"/>
</clipPath>
</defs>
</svg>
