<?xml version="1.0" encoding="utf-8"?>
<!-- Generator: Adobe Illustrator 25.0.1, SVG Export Plug-In . SVG Version: 6.00 Build 0)  -->
<svg version="1.1" id="Layer_1" xmlns="http://www.w3.org/2000/svg" xmlns:xlink="http://www.w3.org/1999/xlink" x="0px" y="0px"
	 viewBox="0 0 43.8 43.8" style="enable-background:new 0 0 43.8 43.8;" xml:space="preserve">
<style type="text/css">
	.st0{fill:url(#SVGID_2_);}
	.st1{fill:#FFFFFF;}
</style>
<g>
	<linearGradient id="SVGID_2_" gradientUnits="userSpaceOnUse" x1="0.3542" y1="21.818" x2="43.3542" y2="21.818">
		<stop  offset="0" style="stop-color:#284B7F"/>
		<stop  offset="1" style="stop-color:#4593D0"/>
	</linearGradient>
	<circle id="SVGID_1_" class="st0" cx="21.9" cy="21.8" r="21.5"/>
</g>
<g>
	<path class="st1" d="M27.9,11.4c-1.4-1.9-3.3-3.7-6-4.9c-7.8,3.4-9.1,12.1-9.1,12.1c3.6-0.1,5.2-0.1,6.5-2.9c0.9-2,1.3-3.5,2.6-5.5
		c0.2,0.3,0.4,0.6,0.6,0.9C23.4,11,25.4,10.9,27.9,11.4L27.9,11.4z"/>
	<path class="st1" d="M13.9,12.8c-2.2,0.7-4.5,2-6.5,4.2c0.9,8.5,8.7,12.4,8.7,12.4c1-3.4,1.5-5-0.8-7.1c-1.7-1.5-2.9-2.3-4.4-4.2
		c0.3-0.1,0.7-0.2,1-0.3C12.1,16.9,12.7,14.9,13.9,12.8L13.9,12.8z"/>
	<path class="st1" d="M10.9,26.5c0,2.3,0.5,4.9,2,7.4c8.3,1.8,14.5-4.4,14.5-4.4c-2.9-2-4.3-3-7-1.4c-1.9,1.1-3.1,2.1-5.3,2.9
		c0-0.4,0-0.7,0.1-1.1C14.3,29.4,12.6,28.3,10.9,26.5L10.9,26.5z"/>
	<path class="st1" d="M23,33.6c2.2,0.7,4.8,1,7.7,0.4c4.3-7.4,0.2-15.1,0.2-15.1c-2.8,2.2-4.2,3.1-3.5,6.2c0.5,2.2,1,3.6,1.1,5.9
		c-0.3-0.1-0.7-0.2-1-0.4C26.9,31.2,25.3,32.6,23,33.6L23,33.6z"/>
	<path class="st1" d="M33.5,24.3c1.4-1.9,2.5-4.2,2.8-7.2C30.6,10.7,22,12.2,22,12.2c1.2,3.4,1.7,5,4.8,5.2c2.2,0.2,3.7,0.1,6,0.8
		c-0.2,0.3-0.4,0.6-0.7,0.8C32.5,19.9,33.2,21.8,33.5,24.3L33.5,24.3z"/>
</g>
</svg>
