<svg width="20" height="20" viewBox="0 0 20 20" fill="none" xmlns="http://www.w3.org/2000/svg">
<g clip-path="url(#clip0_30709_42793)">
<path d="M20 10C20 15.5232 15.5229 20 9.9994 20C4.47589 20 0 15.5232 0 10C0 4.47682 4.47709 0 9.9994 0C15.5217 0 20 4.47682 20 10Z" fill="black"/>
<path d="M6.5855 12.1349C6.64692 12.0723 6.73121 12.0361 6.81791 12.0361H14.9003C15.0436 12.0361 15.1194 12.218 15.0171 12.3239L13.4228 13.9531C13.3613 14.0157 13.2783 14.0518 13.1904 14.0518H5.10077C4.95627 14.0518 4.8804 13.8688 4.98396 13.764L6.5831 12.1361H6.5855V12.1349Z" fill="#C931F7"/>
<path d="M6.5855 6.04795C6.64692 5.98534 6.73 5.94922 6.81791 5.94922H14.9003C15.0436 5.94922 15.1194 6.13224 15.0171 6.237L13.4228 7.86614C13.3613 7.92875 13.2771 7.96367 13.1904 7.96367H5.10077C4.95627 7.96367 4.8804 7.78185 4.98396 7.67589L6.5831 6.04675H6.5855V6.04795Z" fill="#1CE2AF"/>
<path d="M13.4158 9.07312C13.3544 9.0105 13.2701 8.97559 13.1834 8.97559H5.10223C4.95773 8.97559 4.88187 9.1574 4.98543 9.26216L6.57854 10.8913C6.63995 10.9539 6.72304 10.99 6.81094 10.99H14.8933C15.0366 10.99 15.1125 10.807 15.0101 10.7023L13.4158 9.07432V9.07312Z" fill="#6697CE"/>
</g>
<defs>
<clipPath id="clip0_30709_42793">
<rect width="20" height="20" fill="white"/>
</clipPath>
</defs>
</svg>
