<svg width="20" height="20" viewBox="0 0 20 20" fill="none" xmlns="http://www.w3.org/2000/svg">
<g clip-path="url(#clip0_27637_88807)">
<path d="M10 20C15.5229 20 20 15.5229 20 10C20 4.47714 15.5229 0 10 0C4.47714 0 0 4.47714 0 10C0 15.5229 4.47714 20 10 20Z" fill="#0098EA"/>
<path d="M13.4143 5.58105H6.58515C5.32951 5.58105 4.53369 6.93552 5.16536 8.03048L9.38008 15.3358C9.65511 15.8128 10.3444 15.8128 10.6194 15.3358L14.835 8.03048C15.4658 6.93727 14.67 5.58105 13.4152 5.58105H13.4143ZM9.37665 13.145L8.45876 11.3686L6.24397 7.40738C6.09786 7.15384 6.27833 6.82895 6.58429 6.82895H9.37579V13.1459L9.37665 13.145ZM13.7538 7.40652L11.5399 11.3694L10.622 13.145V6.82809H13.4135C13.7194 6.82809 13.8999 7.15298 13.7538 7.40652Z" fill="white"/>
</g>
<defs>
<clipPath id="clip0_27637_88807">
<rect width="20" height="20" rx="10" fill="white"/>
</clipPath>
</defs>
</svg>
