<svg width="34" height="34" viewBox="0 0 34 34" fill="none" xmlns="http://www.w3.org/2000/svg">
<g clip-path="url(#clip0_13446_1326)">
<path d="M17 34C26.3888 34 34 26.3888 34 17C34 7.61116 26.3888 0 17 0C7.61116 0 0 7.61116 0 17C0 26.3888 7.61116 34 17 34Z" fill="#4CAF50"/>
<path d="M19.55 21.3605C19.55 19.5585 18.0115 19.074 16.3625 18.3345C14.0675 17.323 11.611 16.456 11.611 12.8775C11.611 11.713 11.9765 8.47449 16.49 7.89649V5.25299H18.462V7.93049C22.457 8.61899 23.0435 11.611 23.12 13.6765H19.55C19.55 11.5515 18.581 10.727 17.306 10.727C17.019 10.7076 16.7312 10.7505 16.4623 10.8526C16.1934 10.9548 15.9497 11.1138 15.7479 11.3188C15.5462 11.5238 15.391 11.7699 15.2932 12.0404C15.1953 12.3109 15.1571 12.5993 15.181 12.886C15.181 16.592 23.12 15.215 23.12 21.335C23.12 25.636 18.9465 26.214 18.207 26.2905V28.747H16.218V26.299C15.4802 26.2767 14.7545 26.1058 14.0843 25.7967C13.414 25.4875 12.813 25.0464 12.3171 24.4997C11.8212 23.9531 11.4406 23.312 11.198 22.6149C10.9555 21.9178 10.856 21.1789 10.9055 20.4425H14.45C14.45 23.562 16.813 23.4855 17.153 23.4855C17.4537 23.5229 17.759 23.4959 18.0485 23.4061C18.338 23.3163 18.605 23.1659 18.8318 22.9648C19.0586 22.7637 19.2399 22.5167 19.3638 22.24C19.4876 21.9634 19.5511 21.6636 19.55 21.3605Z" fill="#FDFDFD"/>
</g>
<defs>
<clipPath id="clip0_13446_1326">
<rect width="34" height="34" rx="17" fill="white"/>
</clipPath>
</defs>
</svg>
