<?xml version="1.0" encoding="utf-8"?>
<!-- Generator: Adobe Illustrator 16.0.0, SVG Export Plug-In . SVG Version: 6.00 Build 0)  -->
<!DOCTYPE svg PUBLIC "-//W3C//DTD SVG 1.1//EN" "http://www.w3.org/Graphics/SVG/1.1/DTD/svg11.dtd">
<svg version="1.1" id="Layer_1" xmlns="http://www.w3.org/2000/svg" xmlns:xlink="http://www.w3.org/1999/xlink" x="0px" y="0px"
	 width="26.199px" height="28.956px" viewBox="0 0 26.199 28.956" enable-background="new 0 0 26.199 28.956" xml:space="preserve">
<g>
	<defs>
		<circle id="SVGID_1_" cx="13.033" cy="14.565" r="12"/>
	</defs>
	<clipPath id="SVGID_2_">
		<use xlink:href="#SVGID_1_"  overflow="visible"/>
	</clipPath>
	<g clip-path="url(#SVGID_2_)">
		<defs>
			<rect id="SVGID_3_" x="-15.967" y="-319.435" width="375" height="727"/>
		</defs>
		<clipPath id="SVGID_4_">
			<use xlink:href="#SVGID_3_"  overflow="visible"/>
		</clipPath>
		<rect x="-3.967" y="-2.435" clip-path="url(#SVGID_4_)" fill="#2687C1" width="34" height="34"/>
	</g>
</g>
<g>
	<g>
		<path fill="#FFFFFF" d="M14.604,17.596c0-0.442-0.145-0.809-0.434-1.098s-0.783-0.556-1.48-0.801
			c-1.104-0.354-1.933-0.798-2.484-1.332c-0.552-0.534-0.828-1.262-0.828-2.184c0-0.87,0.263-1.582,0.789-2.137
			c0.526-0.555,1.247-0.884,2.164-0.988V7.354h1.242v1.719c0.906,0.12,1.609,0.479,2.109,1.078s0.745,1.388,0.734,2.367
			l-0.023,0.039h-1.836c0-0.604-0.146-1.082-0.438-1.434c-0.292-0.352-0.701-0.527-1.227-0.527c-0.552,0-0.961,0.142-1.227,0.426
			s-0.398,0.665-0.398,1.145c0,0.448,0.138,0.808,0.414,1.078c0.276,0.271,0.786,0.544,1.531,0.82
			c1.104,0.359,1.928,0.805,2.473,1.336c0.544,0.531,0.816,1.258,0.816,2.18c0,0.901-0.275,1.62-0.824,2.156
			c-0.55,0.536-1.304,0.854-2.262,0.953v1.523h-1.242v-1.516c-0.938-0.094-1.71-0.425-2.316-0.992
			c-0.607-0.567-0.9-1.403-0.879-2.508l0.016-0.039h1.836c0,0.724,0.182,1.239,0.547,1.547c0.364,0.308,0.825,0.461,1.383,0.461
			c0.594,0,1.049-0.141,1.367-0.422C14.444,18.463,14.604,18.081,14.604,17.596z"/>
	</g>
</g>
</svg>
