<svg width="34" height="34" viewBox="0 0 34 34" fill="none" xmlns="http://www.w3.org/2000/svg">
<g clip-path="url(#clip0_13446_1338)">
<g clip-path="url(#clip1_13446_1338)">
<path d="M17 34C26.3888 34 34 26.3888 34 17C34 7.61116 26.3888 0 17 0C7.61116 0 0 7.61116 0 17C0 26.3888 7.61116 34 17 34Z" fill="#2775CA"/>
<path d="M13.8125 28.8208C13.8125 29.2192 13.4938 29.445 13.1219 29.3254C7.96875 27.6786 4.25 22.8708 4.25 17.1731C4.25 11.4887 7.96875 6.66764 13.1219 5.02076C13.507 4.90123 13.8125 5.12701 13.8125 5.52545V6.52154C13.8125 6.78717 13.6133 7.09264 13.3609 7.1856C9.28359 8.68638 6.375 12.6044 6.375 17.1731C6.375 21.7551 9.28359 25.6598 13.3609 27.1473C13.6133 27.2403 13.8125 27.5458 13.8125 27.8114V28.8208Z" fill="white"/>
<path d="M18.0625 25.1414C18.0625 25.4336 17.8235 25.6727 17.5313 25.6727H16.4688C16.1766 25.6727 15.9375 25.4336 15.9375 25.1414V23.468C13.6133 23.1492 12.4844 21.8609 12.1789 20.0812C12.1258 19.7758 12.3649 19.5102 12.6703 19.5102H13.8789C14.1313 19.5102 14.3438 19.6961 14.3969 19.9352C14.6227 20.9844 15.2336 21.7945 17.093 21.7945C18.461 21.7945 19.4438 21.0242 19.4438 19.882C19.4438 18.7398 18.8727 18.3016 16.8539 17.9695C13.8789 17.5711 12.4711 16.668 12.4711 14.3437C12.4711 12.5508 13.8391 11.143 15.9375 10.8508V9.2039C15.9375 8.91172 16.1766 8.67265 16.4688 8.67265H17.5313C17.8235 8.67265 18.0625 8.91172 18.0625 9.2039V10.8906C19.7758 11.1961 20.8649 12.1656 21.2235 13.7859C21.2899 14.0914 21.0508 14.3703 20.7321 14.3703H19.6164C19.3774 14.3703 19.1781 14.2109 19.1117 13.9852C18.8063 12.9625 18.0758 12.5109 16.8008 12.5109C15.393 12.5109 14.6625 13.1883 14.6625 14.1445C14.6625 15.1539 15.0742 15.6586 17.2391 15.9641C20.161 16.3625 21.675 17.1992 21.675 19.6828C21.675 21.5687 20.2672 23.0961 18.0758 23.4414V25.1414H18.0625Z" fill="white"/>
<path d="M20.8781 29.3255C20.493 29.445 20.1875 29.2192 20.1875 28.8208V27.8247C20.1875 27.5325 20.3602 27.2536 20.6391 27.1606C24.7031 25.6731 27.625 21.7551 27.625 17.1864C27.625 12.6044 24.7164 8.69967 20.6391 7.21217C20.3867 7.1192 20.1875 6.81373 20.1875 6.54811V5.55201C20.1875 5.15358 20.5062 4.92779 20.8781 5.04733C26.0312 6.66764 29.75 11.4887 29.75 17.1731C29.75 22.8708 26.0312 27.6786 20.8781 29.3255Z" fill="white"/>
</g>
</g>
<defs>
<clipPath id="clip0_13446_1338">
<rect width="34" height="34" rx="17" fill="white"/>
</clipPath>
<clipPath id="clip1_13446_1338">
<rect width="34" height="34" fill="white"/>
</clipPath>
</defs>
</svg>
