<?xml version="1.0" encoding="utf-8"?>
<!-- Generator: Adobe Illustrator 23.1.1, SVG Export Plug-In . SVG Version: 6.00 Build 0)  -->
<svg version="1.1" id="Layer_1" xmlns="http://www.w3.org/2000/svg" xmlns:xlink="http://www.w3.org/1999/xlink" x="0px" y="0px"
	 viewBox="0 0 43.8 43.8" style="enable-background:new 0 0 43.8 43.8;" xml:space="preserve">
<style type="text/css">
	.st0{fill:#CECECE;}
	.st1{clip-path:url(#SVGID_3_);fill:#D9B73E;}
	.st2{fill:#FFFFFF;}
</style>
<g>
	<g>
		<circle id="SVGID_1_" class="st0" cx="21.9" cy="22" r="21.5"/>
	</g>
	<g>
		<g>
			<defs>
				<circle id="SVGID_2_" cx="21.9" cy="22" r="21.5"/>
			</defs>
			<clipPath id="SVGID_3_">
				<use xlink:href="#SVGID_2_"  style="overflow:visible;"/>
			</clipPath>
			<rect x="-4.6" y="-4.5" class="st1" width="53" height="53"/>
		</g>
	</g>
</g>
<path class="st2" d="M9,26.4c0,0,0.3,3.5,3.7,3.5v-9c0,0,0-2.6,3.4-2.5c0,0,3.5-0.3,4,2.7v5.7c0,0,0.6,2.9,3.9,3v-8.8
	c0,0,0-2.7,3.7-2.7c0,0,3.2,0,3.5,2.8v5.4c0,0,0.7,3.1,3.9,3.3v-9.4c0,0-0.6-6.3-7.7-6.3c0,0-3.9,0.3-5.6,2.8c0,0-1.8-3.2-6.8-2.8
	c0,0-5.5,0.4-6,5.1L9,26.4z"/>
</svg>
