<svg width="20" height="20" viewBox="0 0 20 20" fill="none" xmlns="http://www.w3.org/2000/svg">
<path d="M10 20C15.5228 20 20 15.5228 20 10C20 4.47715 15.5228 0 10 0C4.47715 0 0 4.47715 0 10C0 15.5228 4.47715 20 10 20Z" fill="#009393"/>
<path fill-rule="evenodd" clip-rule="evenodd" d="M10.0122 10.7143C11.7326 10.7143 13.1694 10.4245 13.5204 10.0347C13.2224 9.70613 12.1428 9.44491 10.7734 9.37552V10.1959C10.5285 10.2082 10.2734 10.2143 10.0122 10.2143C9.75099 10.2143 9.49589 10.2082 9.25099 10.1959V9.37552C7.88161 9.44695 6.80201 9.70613 6.50406 10.0347C6.85508 10.4225 8.29385 10.7143 10.0122 10.7143ZM13.0673 6.85103V7.98164H10.7734V8.76531C12.3857 8.84899 13.5939 9.19389 13.6041 9.60613V10.4653C13.5959 10.8776 12.3857 11.2204 10.7734 11.3061V13.2306H9.25099V11.3061C7.63875 11.2225 6.43059 10.8776 6.42242 10.4653V9.60613C6.43059 9.19389 7.64079 8.84899 9.25099 8.76531V7.98164H6.95712V6.85103H13.0694H13.0673ZM6.05303 5.05307H14.1061C14.2979 5.05307 14.4755 5.15511 14.5714 5.31838L16.9183 9.34695C17.0408 9.55511 17.0041 9.82042 16.8306 9.9898L10.3714 16.2939C10.1612 16.498 9.82446 16.498 9.6163 16.2939L3.16528 9.99797C2.98773 9.8245 2.95508 9.55307 3.08569 9.34287L5.59385 5.30613C5.69181 5.14899 5.86528 5.05307 6.05099 5.05307H6.05303Z" fill="white"/>
</svg>
