<svg width="20" height="20" viewBox="0 0 20 20" fill="none" xmlns="http://www.w3.org/2000/svg">
<rect width="20" height="20" rx="10" fill="#23292F"/>
<path d="M13.59 6.00488H15L12.0661 8.95378C11.815 9.2073 11.5157 9.40864 11.1855 9.54607C10.8554 9.68351 10.501 9.75428 10.1431 9.75428C9.78517 9.75428 9.43082 9.68351 9.10069 9.54607C8.77055 9.40864 8.47121 9.2073 8.22012 8.95378L5.28564 6.00488H6.69567L8.92541 8.24554C9.08443 8.40611 9.27399 8.53362 9.48307 8.62066C9.69215 8.7077 9.91656 8.75253 10.1432 8.75253C10.3699 8.75253 10.5943 8.7077 10.8034 8.62066C11.0125 8.53362 11.2021 8.40611 11.3611 8.24554L13.59 6.00488Z" fill="white" stroke="white" stroke-width="0.513787"/>
<path d="M6.69041 14.5263H5.28564L8.22701 11.4392C8.47719 11.1755 8.77541 10.966 9.10432 10.823C9.43322 10.6801 9.78624 10.6064 10.1428 10.6064C10.4994 10.6064 10.8524 10.6801 11.1813 10.823C11.5102 10.966 11.8085 11.1755 12.0586 11.4392L15 14.5263H13.5952L11.3562 12.1767C11.1978 12.0096 11.0089 11.8769 10.8006 11.7863C10.5923 11.6957 10.3687 11.6491 10.1428 11.6491C9.91696 11.6491 9.69335 11.6957 9.48502 11.7863C9.2767 11.8769 9.08782 12.0096 8.9294 12.1767L6.69041 14.5263Z" fill="white" stroke="white" stroke-width="0.513787"/>
</svg>
